<svg xmlns="http://www.w3.org/2000/svg" width="138" height="22" fill="none" viewBox="0 0 138 22">
    <path fill="url(#paint0_linear)" d="M37.44 4.595v1.542c-1.078-1.247-2.68-2.002-4.872-2.002-4.283 0-7.815 3.774-7.815 8.664s3.532 8.664 7.815 8.664c2.191 0 3.794-.755 4.873-2.002v1.543h4.905V4.594H37.44zm-3.89 12.208c-2.257 0-3.892-1.543-3.892-4.004 0-2.461 1.635-4.004 3.891-4.004 2.257 0 3.892 1.543 3.892 4.004 0 2.462-1.635 4.004-3.892 4.004z"/>
    <path fill="url(#paint1_linear)" d="M49.199 14.768h11.608c.131-.623.197-1.28.197-1.969 0-4.955-3.532-8.664-8.306-8.664-5.167 0-8.699 3.774-8.699 8.664s3.466 8.664 9.058 8.664c3.107 0 5.527-1.149 7.129-3.38l-3.924-2.265c-.654.722-1.799 1.248-3.14 1.248-1.798 0-3.302-.591-3.923-2.298zm-.099-3.675c.458-1.674 1.701-2.593 3.565-2.593 1.471 0 2.943.69 3.466 2.593h-7.03z"/>
    <path fill="url(#paint2_linear)" d="M66.663 9.386c0-.59.523-.919 1.373-.919 1.08 0 1.733.59 2.191 1.444l4.186-2.264c-1.374-2.33-3.728-3.512-6.377-3.512-3.4 0-6.41 1.805-6.41 5.382 0 5.678 8.045 4.726 8.045 6.531 0 .657-.588 1.018-1.766 1.018-1.438 0-2.354-.69-2.78-1.937l-4.25 2.429c1.275 2.658 3.76 3.905 7.03 3.905 3.532 0 6.802-1.608 6.802-5.382 0-6.071-8.044-4.824-8.044-6.695z"/>
    <path fill="url(#paint3_linear)" d="M85.13 9.32V4.595h-3.367V0l-4.906 1.477v3.118h-2.616V9.32h2.617v5.81c0 4.594 1.863 6.53 8.273 5.874V16.54c-2.159.132-3.368 0-3.368-1.41V9.32h3.368z"/>
    <path fill="url(#paint4_linear)" d="M92.005 7.515v-2.92H87.1v16.409h4.905v-7.417c0-3.25 2.877-4.07 4.905-3.742V4.266c-2.06 0-4.251 1.05-4.905 3.25z"/>
    <path fill="url(#paint5_linear)" d="M105.444 21.463c4.807 0 8.666-3.774 8.666-8.664s-3.859-8.664-8.666-8.664-8.665 3.774-8.665 8.664 3.858 8.664 8.665 8.664zm0-4.791c-2.125 0-3.76-1.543-3.76-3.873s1.635-3.872 3.76-3.872c2.126 0 3.761 1.542 3.761 3.872s-1.635 3.873-3.761 3.873z"/>
    <path fill="url(#paint6_linear)" d="M5.173.006L.03 0l-.03 21.32 5.14.005L5.173.006z"/>
    <path fill="url(#paint7_linear)" d="M14.152.006L9.011 0 8.98 21.32l5.141.005.031-21.319z"/>
    <path fill="url(#paint8_linear)" d="M23.134.006L17.993 0l-.031 21.32 5.14.005.032-21.319z"/>
    <path fill="url(#paint9_linear)" d="M127.271 8.99l-1.26-1.319c.429-.619.73-1.319.916-1.978l-1.919-1.023c-.115.552-.272 1.05-.473 1.48l-1.848-1.924c-.444-.458-.788-.808-.788-1.332 0-.458.387-.794.96-.794.645 0 1.046.39 1.304 1.022l1.962-1.063C125.509.673 124.277 0 122.83 0c-1.919 0-3.223 1.17-3.223 2.759 0 .606.158 1.077.416 1.494-1.032.619-1.605 1.628-1.605 2.705 0 1.777 1.519 2.84 3.582 2.84 1.031 0 1.891-.283 2.592-.74l.889.901 1.79-.969zm-5.085-1.157c-1.017 0-1.447-.471-1.447-1.104 0-.377.158-.767.53-1.05l.086.081 1.834 1.857c-.301.149-.631.216-1.003.216z"/>
    <path fill="url(#paint10_linear)" d="M122.901 21.024c1.771 0 3.32-.861 4.151-2.216l-1.91-1.094c-.415.739-1.259 1.176-2.241 1.176-1.716 0-2.822-1.135-2.822-2.845 0-1.71 1.106-2.846 2.822-2.846.982 0 1.812.438 2.241 1.177l1.91-1.095c-.844-1.354-2.394-2.216-4.151-2.216-2.919 0-5.036 2.162-5.036 4.98 0 2.818 2.117 4.98 5.036 4.98z"/>
    <path fill="url(#paint11_linear)" d="M130.931 21.024c2.034 0 3.666-1.573 3.666-3.611 0-2.039-1.632-3.612-3.666-3.612s-3.667 1.573-3.667 3.612c0 2.038 1.633 3.611 3.667 3.611zm0-1.997c-.9 0-1.591-.643-1.591-1.614 0-.971.691-1.614 1.591-1.614.899 0 1.591.643 1.591 1.614 0 .971-.692 1.614-1.591 1.614z"/>
    <path fill="url(#paint12_linear)" d="M135.916 21.024c.719 0 1.314-.588 1.314-1.3 0-.71-.595-1.299-1.314-1.299-.72 0-1.314.588-1.314 1.3 0 .711.594 1.3 1.314 1.3z"/>
    <defs>
        <linearGradient id="paint0_linear" x1="1" x2="138" y1="0" y2="21" gradientUnits="userSpaceOnUse">
            <stop stop-color="#766FF6"/>
            <stop offset="1" stop-color="#D3C2CE"/>
        </linearGradient>
        <linearGradient id="paint1_linear" x1="1" x2="138" y1="0" y2="21" gradientUnits="userSpaceOnUse">
            <stop stop-color="#766FF6"/>
            <stop offset="1" stop-color="#D3C2CE"/>
        </linearGradient>
        <linearGradient id="paint2_linear" x1="1" x2="138" y1="0" y2="21" gradientUnits="userSpaceOnUse">
            <stop stop-color="#766FF6"/>
            <stop offset="1" stop-color="#D3C2CE"/>
        </linearGradient>
        <linearGradient id="paint3_linear" x1="1" x2="138" y1="0" y2="21" gradientUnits="userSpaceOnUse">
            <stop stop-color="#766FF6"/>
            <stop offset="1" stop-color="#D3C2CE"/>
        </linearGradient>
        <linearGradient id="paint4_linear" x1="1" x2="138" y1="0" y2="21" gradientUnits="userSpaceOnUse">
            <stop stop-color="#766FF6"/>
            <stop offset="1" stop-color="#D3C2CE"/>
        </linearGradient>
        <linearGradient id="paint5_linear" x1="1" x2="138" y1="0" y2="21" gradientUnits="userSpaceOnUse">
            <stop stop-color="#766FF6"/>
            <stop offset="1" stop-color="#D3C2CE"/>
        </linearGradient>
        <linearGradient id="paint6_linear" x1="2.602" x2="134.505" y1=".003" y2="20.966" gradientUnits="userSpaceOnUse">
            <stop stop-color="#766FF6"/>
            <stop offset="1" stop-color="#D3C2CE"/>
        </linearGradient>
        <linearGradient id="paint7_linear" x1="-1.5" x2="136" y1="0" y2="21" gradientUnits="userSpaceOnUse">
            <stop stop-color="#766FF6"/>
            <stop offset="1" stop-color="#D3C2CE"/>
        </linearGradient>
        <linearGradient id="paint8_linear" x1=".5" x2="133.5" y1="0" y2="23" gradientUnits="userSpaceOnUse">
            <stop stop-color="#766FF6"/>
            <stop offset="1" stop-color="#D3C2CE"/>
        </linearGradient>
        <linearGradient id="paint9_linear" x1="1.5" x2="137" y1="0" y2="20" gradientUnits="userSpaceOnUse">
            <stop stop-color="#766FF6"/>
            <stop offset="1" stop-color="#D3C2CE"/>
        </linearGradient>
        <linearGradient id="paint10_linear" x1="-.5" x2="137" y1="-.5" y2="21" gradientUnits="userSpaceOnUse">
            <stop stop-color="#766FF6"/>
            <stop offset="1" stop-color="#D3C2CE"/>
        </linearGradient>
        <linearGradient id="paint11_linear" x1="-.5" x2="137" y1="-.5" y2="21" gradientUnits="userSpaceOnUse">
            <stop stop-color="#766FF6"/>
            <stop offset="1" stop-color="#D3C2CE"/>
        </linearGradient>
        <linearGradient id="paint12_linear" x1="-.5" x2="137" y1="-.5" y2="21" gradientUnits="userSpaceOnUse">
            <stop stop-color="#766FF6"/>
            <stop offset="1" stop-color="#D3C2CE"/>
        </linearGradient>
    </defs>
</svg>
