<svg width="67" height="30" viewBox="0 0 67 30" fill="none" xmlns="http://www.w3.org/2000/svg">
<path d="M6.50459 0.238582L0.0395508 0.22998L6.81232e-05 29.4906L6.46511 29.4992L6.50459 0.238582Z" fill="#E9E9E9"/>
<path d="M17.7981 0.238582L11.333 0.22998L11.2935 29.4906L17.7586 29.4992L17.7981 0.238582Z" fill="#E9E9E9"/>
<path d="M29.0905 0.238582L22.6255 0.22998L22.586 29.4906L29.0511 29.4992L29.0905 0.238582Z" fill="#E9E9E9"/>
<path d="M45.0335 14.5246L43.8337 13.235C42.8879 13.8868 41.7234 14.2863 40.333 14.2863C37.5451 14.2793 35.4983 12.7655 35.5054 10.2284C35.5054 8.69349 36.2817 7.25674 37.6792 6.37367C37.3334 5.77794 37.1216 5.10512 37.1216 4.24307C37.1216 1.97931 38.8861 0.311279 41.4764 0.311279C43.4314 0.311279 45.09 1.27846 45.9228 3.25487L43.2691 4.76871C42.9232 3.86461 42.3798 3.31093 41.5116 3.30393C40.7353 3.30393 40.213 3.78051 40.213 4.4323C40.213 5.18221 40.6788 5.67982 41.2717 6.33161L43.7631 9.07896C44.0313 8.46221 44.2501 7.75435 44.4054 6.96939L46.9956 8.43418C46.7416 9.37332 46.3322 10.3755 45.7534 11.2516L47.4544 13.1369L45.0335 14.5246ZM41.9422 11.1815L39.4719 8.52529L39.359 8.41315C38.8579 8.81264 38.6391 9.37332 38.6391 9.91298C38.6391 10.8171 39.2178 11.4899 40.5871 11.4899C41.0952 11.4899 41.5399 11.3918 41.9422 11.1815Z" fill="#E9E9E9"/>
<path d="M33.8599 22.4534C33.8669 18.5006 36.8242 15.4659 40.9108 15.4729C43.3669 15.4729 45.5337 16.6854 46.7053 18.5917L44.0374 20.1266C43.4375 19.0893 42.28 18.4726 40.9108 18.4726C38.5111 18.4726 36.9654 20.0635 36.9583 22.4604C36.9583 24.8573 38.4969 26.4553 40.8966 26.4623C42.2659 26.4623 43.4516 25.8526 44.0304 24.8153L46.6982 26.3572C45.5337 28.2565 43.3669 29.462 40.8966 29.462C36.8101 29.4479 33.8528 26.4132 33.8599 22.4534Z" fill="#E9E9E9"/>
<path d="M47.3765 22.4744C47.3835 18.5216 50.5384 15.4869 54.4274 15.4939C58.3163 15.5009 61.4641 18.5356 61.4571 22.4884C61.45 26.4412 58.2951 29.4759 54.4062 29.4689C50.5173 29.4619 47.3694 26.4272 47.3765 22.4744ZM58.3586 22.4884C58.3586 20.0915 56.6224 18.4936 54.4203 18.4866C52.2182 18.4866 50.4749 20.0775 50.4679 22.4744C50.4679 24.8713 52.2041 26.4693 54.4062 26.4763C56.6083 26.4833 58.3586 24.8924 58.3586 22.4884Z" fill="#E9E9E9"/>
<path d="M61.9297 27.6606C61.9297 26.6654 62.7625 25.8384 63.7718 25.8384C64.774 25.8384 65.6068 26.6654 65.6068 27.6676C65.6068 28.6628 64.774 29.4898 63.7647 29.4898C62.7625 29.4828 61.9297 28.6558 61.9297 27.6606Z" fill="#E9E9E9"/>
<path d="M65.419 3.67051C65.419 3.2256 65.347 2.81667 65.2031 2.44374C65.0591 2.0708 64.8596 1.7502 64.6044 1.48194C64.3492 1.21369 64.0515 1.00759 63.7113 0.863649C63.3711 0.713165 63.0047 0.637923 62.6121 0.637923C62.213 0.637923 61.8401 0.713165 61.4933 0.863649C61.1531 1.00759 60.8554 1.21369 60.6002 1.48194C60.345 1.7502 60.1455 2.0708 60.0015 2.44374C59.8576 2.81667 59.7856 3.2256 59.7856 3.67051C59.7856 4.08925 59.8511 4.48182 59.9819 4.84821C60.1128 5.21461 60.2992 5.53521 60.5413 5.81001C60.7899 6.0848 61.0876 6.30399 61.4344 6.46756C61.7812 6.62458 62.1737 6.7031 62.6121 6.7031C63.0047 6.7031 63.3711 6.63113 63.7113 6.48718C64.0515 6.3367 64.3492 6.12733 64.6044 5.85908C64.8596 5.59082 65.0591 5.2735 65.2031 4.9071C65.347 4.53416 65.419 4.12196 65.419 3.67051ZM66.2041 3.67051C66.2041 4.22011 66.106 4.72063 65.9097 5.17208C65.7199 5.62354 65.4582 6.00956 65.1245 6.33016C64.7974 6.65075 64.4147 6.89938 63.9763 7.07604C63.5445 7.25269 63.0897 7.34102 62.6121 7.34102C62.0821 7.34102 61.5947 7.24942 61.1498 7.06622C60.7114 6.87648 60.3319 6.61804 60.0114 6.2909C59.6973 5.96376 59.4487 5.57774 59.2655 5.13283C59.0888 4.68137 59.0005 4.19393 59.0005 3.67051C59.0005 3.12091 59.0954 2.62039 59.2851 2.16894C59.4814 1.71748 59.7431 1.33146 60.0702 1.01086C60.4039 0.690265 60.7899 0.441638 61.2283 0.264983C61.6667 0.0883276 62.1279 0 62.6121 0C63.0897 0 63.5445 0.0883276 63.9763 0.264983C64.4147 0.441638 64.7974 0.690265 65.1245 1.01086C65.4582 1.33146 65.7199 1.71748 65.9097 2.16894C66.106 2.62039 66.2041 3.12091 66.2041 3.67051ZM62.6317 3.46441C62.7561 3.46441 62.8738 3.46114 62.9851 3.4546C63.1028 3.44151 63.2042 3.41207 63.2893 3.36627C63.3743 3.32047 63.443 3.25831 63.4954 3.1798C63.5477 3.09474 63.5739 2.97697 63.5739 2.82649C63.5739 2.70218 63.5445 2.60403 63.4856 2.53206C63.4332 2.46009 63.3645 2.40448 63.2795 2.36522C63.1944 2.32596 63.0996 2.30307 62.9949 2.29652C62.8902 2.28344 62.7888 2.27689 62.6906 2.27689H61.8859V3.46441H62.6317ZM61.8859 5.77075H61.2185V1.70767H62.7593C63.25 1.70767 63.6197 1.79927 63.8683 1.98247C64.117 2.16567 64.2413 2.46336 64.2413 2.87556C64.2413 3.24196 64.1399 3.51021 63.937 3.68032C63.7342 3.85044 63.4823 3.95185 63.1813 3.98456L64.3198 5.77075H63.5641L62.514 4.03363H61.8859V5.77075Z" fill="#E9E9E9"/>
</svg>
