<svg xmlns="http://www.w3.org/2000/svg" width="51" height="24" fill="none" viewBox="0 0 51 24">
    <path fill="url(#paint0_linear)" d="M5.597.007L.037 0 .001 23.059l5.561.006L5.597.008z"/>
    <path fill="url(#paint1_linear)" d="M15.307.007L9.747 0l-.034 23.059 5.56.006.034-23.058z"/>
    <path fill="url(#paint2_linear)" d="M25.021.007L19.461 0l-.034 23.059 5.56.006.034-23.058z"/>
    <path fill="url(#paint3_linear)" d="M40.05 9.724l-1.363-1.427c.465-.67.79-1.426.991-2.14l-2.076-1.106c-.124.597-.294 1.136-.511 1.601l-1.999-2.081c-.48-.495-.852-.874-.852-1.441 0-.495.418-.86 1.038-.86.697 0 1.131.423 1.41 1.107l2.123-1.15C38.144.727 36.812 0 35.247 0c-2.076 0-3.486 1.266-3.486 2.984 0 .655.17 1.165.45 1.616-1.116.67-1.736 1.761-1.736 2.926 0 1.921 1.642 3.071 3.873 3.071 1.116 0 2.046-.305 2.805-.8l.96.975 1.937-1.048zm-5.5-1.252c-1.1 0-1.565-.51-1.565-1.194 0-.407.17-.83.573-1.135l.093.087 1.983 2.01c-.325.16-.681.232-1.084.232z"/>
    <path fill="url(#paint4_linear)" d="M35.323 22.74c1.916 0 3.592-.932 4.49-2.397l-2.065-1.183c-.45.799-1.362 1.272-2.425 1.272-1.855 0-3.052-1.228-3.052-3.077 0-1.85 1.197-3.078 3.052-3.078 1.063 0 1.96.473 2.425 1.272l2.065-1.183c-.913-1.465-2.59-2.397-4.49-2.397-3.157 0-5.447 2.337-5.447 5.386 0 3.048 2.29 5.385 5.447 5.385z"/>
    <path fill="url(#paint5_linear)" d="M44.008 22.74c2.2 0 3.966-1.701 3.966-3.906s-1.766-3.906-3.966-3.906-3.965 1.701-3.965 3.906 1.766 3.906 3.965 3.906zm0-2.16c-.972 0-1.72-.695-1.72-1.746 0-1.05.748-1.746 1.72-1.746.973 0 1.721.696 1.721 1.746s-.748 1.746-1.72 1.746z"/>
    <path fill="url(#paint6_linear)" d="M49.4 22.74c.778 0 1.422-.636 1.422-1.405 0-.77-.644-1.406-1.422-1.406-.778 0-1.421.636-1.421 1.406 0 .77.643 1.405 1.421 1.405z"/>
    <defs>
        <linearGradient id="paint0_linear" x1="2.817" x2="50.422" y1=".003" y2="20.528" gradientUnits="userSpaceOnUse">
            <stop stop-color="#766FF6"/>
            <stop offset="1" stop-color="#D3C2CE"/>
        </linearGradient>
        <linearGradient id="paint1_linear" x1=".622" x2="42.331" y1="0" y2="19.907" gradientUnits="userSpaceOnUse">
            <stop stop-color="#766FF6"/>
            <stop offset="1" stop-color="#D3C2CE"/>
        </linearGradient>
        <linearGradient id="paint2_linear" x1="-.001" x2="47.31" y1="0" y2="20.528" gradientUnits="userSpaceOnUse">
            <stop stop-color="#766FF6"/>
            <stop offset="1" stop-color="#D3C2CE"/>
        </linearGradient>
        <linearGradient id="paint3_linear" x1="3.111" x2="9.975" y1="0" y2="29.658" gradientUnits="userSpaceOnUse">
            <stop stop-color="#766FF6"/>
            <stop offset="1" stop-color="#D3C2CE"/>
        </linearGradient>
        <linearGradient id="paint4_linear" x1="-.623" x2="51.039" y1="-.622" y2="22.408" gradientUnits="userSpaceOnUse">
            <stop stop-color="#766FF6"/>
            <stop offset="1" stop-color="#D3C2CE"/>
        </linearGradient>
        <linearGradient id="paint5_linear" x1="-.623" x2="51.039" y1="-.622" y2="22.408" gradientUnits="userSpaceOnUse">
            <stop stop-color="#766FF6"/>
            <stop offset="1" stop-color="#D3C2CE"/>
        </linearGradient>
        <linearGradient id="paint6_linear" x1="-.623" x2="51.039" y1="-.622" y2="22.408" gradientUnits="userSpaceOnUse">
            <stop stop-color="#766FF6"/>
            <stop offset="1" stop-color="#D3C2CE"/>
        </linearGradient>
    </defs>
</svg>
